<?xml version="1.0" encoding="UTF-8" standalone="no"?>
<!-- Created with Inkscape (http://www.inkscape.org/) -->

<svg
   width="200mm"
   height="200mm"
   viewBox="0 0 200 200"
   version="1.1"
   id="svg238"
   inkscape:version="1.2.1 (9c6d41e410, 2022-07-14)"
   sodipodi:docname="logowhitev3.svg"
   xmlns:inkscape="http://www.inkscape.org/namespaces/inkscape"
   xmlns:sodipodi="http://sodipodi.sourceforge.net/DTD/sodipodi-0.dtd"
   xmlns="http://www.w3.org/2000/svg"
   xmlns:svg="http://www.w3.org/2000/svg">
  <sodipodi:namedview
     id="namedview240"
     pagecolor="#ffffff"
     bordercolor="#000000"
     borderopacity="0.25"
     inkscape:showpageshadow="2"
     inkscape:pageopacity="0.0"
     inkscape:pagecheckerboard="0"
     inkscape:deskcolor="#d1d1d1"
     inkscape:document-units="mm"
     showgrid="false"
     inkscape:zoom="0.93303299"
     inkscape:cx="156.47893"
     inkscape:cy="375.12071"
     inkscape:window-width="1920"
     inkscape:window-height="1009"
     inkscape:window-x="-8"
     inkscape:window-y="-8"
     inkscape:window-maximized="1"
     inkscape:current-layer="layer1" />
  <defs
     id="defs235" />
  <g
     inkscape:label="Layer 1"
     inkscape:groupmode="layer"
     id="layer1">
    <path
       id="path520-7"
       style="fill:#ffffff;stroke-width:0.322547;fill-opacity:1"
       d="m 84.011928,18.31413 c -0.670506,-0.004 -1.336909,-0.0027 -1.997725,0.0039 -4.805937,0.04789 -9.314186,0.363174 -12.920651,0.775343 -11.540691,1.318938 -32.973487,10.221743 -41.876305,19.454295 -8.90282,9.232548 -12.859772,16.156903 -15.827377,26.048927 -2.9676062,9.892016 -0.329527,21.103548 7.584087,29.346889 7.913616,8.243376 13.912053,7.761226 13.912053,7.761226 -10.843088,4.05787 -13.912174,15.3202 -15.231109,19.60676 -1.318935,4.28652 -1.496464,14.53309 8.243289,21.76215 9.145194,6.78776 18.465538,5.98627 23.994755,6.11321 7.319357,0.16802 19.530078,-11.05917 19.859811,-11.05917 h 0.329601 c 24.070581,34.29232 20.317011,31.95872 28.68704,38.57898 8.455633,6.68798 12.530203,7.91345 28.357433,5.27557 15.82724,-2.63788 40.81875,-8.11546 47.55674,-11.8955 14.96574,-8.3959 15.42292,-7.22874 14.43372,-13.16397 -0.98921,-5.93519 -1.63788,-10.57459 -5.04785,-11.56655 -2.79001,-0.81161 -13.74758,3.65285 -19.35308,5.30152 -5.60549,1.64868 -23.08143,7.25408 -27.36798,8.24329 -4.28652,0.9892 -9.21115,1.64183 -13.84846,-1.97826 -6.98395,-5.45192 -25.107461,-17.27959 -17.55066,-37.23528 4.01112,-15.54708 57.30096,-10.00806 69.97812,-29.041284 4.14406,-6.221839 4.61649,-11.540817 4.28676,-19.124699 -0.32973,-7.583882 -11.64471,-14.801033 -17.47602,-15.168173 -10.07004,-0.634005 -13.519,1.978382 -18.13525,3.297316 0,0 -1.89859,-4.243251 -6.74712,-11.540607 C 130.42364,36.924126 121.85081,29.974682 111.62906,23.709736 105.04081,19.671783 94.069524,18.373803 84.011928,18.31413 Z M 50.166749,31.00445 c 2.262192,0.09838 1.646439,3.025765 -4.30948,9.842637 C 24.994548,64.725617 35.878656,65.932053 26.553501,64.911266 15.373967,63.687485 24.569402,51.429382 24.569402,51.429382 32.955084,39.642071 46.134148,30.829079 50.166749,31.00445 Z m 83.056421,28.186798 c 1.47359,-0.154923 5.01464,8.057582 5.43195,11.589916 0.49459,4.186482 4.50109,-3.922701 13.744,-7.233074 10.9871,-3.935059 16.03788,-0.859365 19.55487,6.325372 2.83561,5.792871 3.80199,11.422246 -0.9181,17.424129 -6.51176,6.956208 -12.37848,10.553366 -17.18017,10.729582 -2.26327,0.133918 -4.36722,0.23578 -7.33039,-2.424011 -2.96316,-2.659766 -6.14115,-6.226226 -7.9844,-10.233223 -1.84328,-4.006998 -3.05601,-5.029113 -5.10948,-12.291293 -1.54479,-5.463249 -1.61195,-7.054001 -0.78119,-12.857718 0.0981,-0.685435 0.30003,-1.000992 0.57291,-1.02968 z m 26.9203,5.535752 c -0.11488,4.14e-4 -0.17907,0.0045 -0.17907,0.0045 -2.52554,-0.100535 -5.70833,4.384659 -0.50349,5.90623 5.20477,1.521555 6.24456,-0.171479 5.64086,-2.428543 -0.88031,-3.291159 -4.15374,-3.485121 -4.9583,-3.482231 z M 19.715562,67.938674 c 0.114179,2.74e-4 0.189456,0.0545 0.189456,0.0545 6.567157,1.222431 10.73138,-0.436681 9.678485,4.566413 -1.310391,6.226654 1.509501,5.526674 -5.457896,5.393662 -3.440525,-0.06568 -5.354855,0.643864 -5.490336,-3.015078 -0.233724,-6.312253 0.672526,-7.000484 1.080291,-6.999497 z m 75.056439,8.770783 c 4.716872,-0.102964 9.255819,13.373009 21.741399,19.685919 4.01573,2.030422 7.73943,8.204414 1.54743,7.120834 -6.19197,-1.0836 -9.90689,-6.191603 -12.53849,-2.012 -2.63159,4.17956 -2.07663,16.33187 -6.965757,12.22901 -1.472051,-1.23532 -1.443631,-5.29569 -1.443631,-5.29569 2.206509,-17.37202 -8.049891,-28.497741 -3.819618,-31.236915 0.500754,-0.324246 0.990714,-0.480507 1.478667,-0.491158 z M 43.342434,96.96115 c 2.087237,-0.06567 4.618299,1.419134 8.070054,2.741277 4.248316,1.627253 7.735807,4.930303 11.353098,8.459353 3.617289,3.52904 6.235695,5.10292 8.471675,11.22074 2.235988,6.11779 3.357791,7.39116 2.518081,12.44895 -0.538324,3.24248 -3.54674,-2.92046 -5.806313,-7.19609 -2.259576,-4.27563 -2.817609,6.45668 -11.597054,13.3891 -4.566772,3.60604 -18.454531,4.19895 -23.384862,1.27364 -6.345414,-3.76489 -8.089595,-6.53933 -7.523747,-15.26938 0.573413,-8.84676 8.315499,-15.84535 22.127444,-18.83663 0,0 0.787614,-1.63957 -6.032752,-3.53284 -4.741528,-1.3162 -2.98716,-2.823611 0.42433,-4.384082 0.4402,-0.201352 0.898375,-0.298883 1.380046,-0.314038 z m 114.044836,6.57842 c -0.31702,0.008 -0.66057,0.0532 -1.03228,0.13949 -5.94731,1.38057 -6.24961,4.73278 -4.63714,7.77744 2.68718,5.07389 6.74646,1.6798 6.74646,1.6798 2.4403,-1.549 3.67822,-9.71902 -1.07704,-9.59673 z m -11.78586,2.80486 c -0.21694,0.009 -0.44302,0.0289 -0.67933,0.0604 -7.56142,1.00688 -8.28752,4.98347 -6.59268,8.79998 2.82446,6.36013 8.2407,2.74127 8.2407,2.74127 3.31152,-1.64131 5.75626,-11.87877 -0.96869,-11.6016 z m 40.58449,0.23746 c -0.32476,0.002 -0.6676,0.0224 -1.02903,0.061 -4.67899,0.49956 -4.58273,1.50414 -9.33331,7.33364 -2.81665,3.45629 -4.39444,6.43943 -10.66276,7.69309 -6.26827,1.25366 -13.01866,0.28913 -18.94625,1.00308 -4.73101,0.56982 -12.65819,2.85802 -15.87411,4.45351 -4.68998,2.32687 -10.27411,7.09553 -12.59104,9.39365 -3.84014,3.80905 -4.20327,4.70112 -4.20566,4.70527 -0.41316,0.71653 1.07081,1.5075 1.73559,1.58183 1.53276,0.17141 2.45054,-0.0327 3.21881,-0.61833 12.57524,-11.19327 12.89837,-7.91213 10.62122,-7.01442 -2.92782,1.84892 -8.13258,6.77541 -8.91871,9.1179 -0.52259,1.55714 0.21696,7.13525 1.52085,5.97826 12.73358,-11.29911 14.98615,-16.28099 25.51688,-16.78246 10.53073,-0.50146 22.17933,1.60061 29.6447,-2.27347 7.61241,-3.95035 14.0406,-11.53323 14.54206,-16.29711 0.47013,-4.46618 -0.36774,-8.37323 -5.23924,-8.33543 z m -54.04497,2.5382 c -0.43684,0.009 -0.91001,0.0595 -1.42221,0.15572 -8.19528,1.53882 -8.61218,5.2752 -6.39027,8.66891 3.70288,5.65554 9.29699,1.87251 9.29699,1.87251 3.36268,-1.72658 5.06815,-10.83345 -1.48451,-10.69714 z m -13.65187,3.94095 c -0.80037,0.002 -1.74235,0.22726 -2.83601,0.74354 -6.9994,3.30424 -6.52902,6.40466 -3.7703,8.56382 4.59738,3.59811 8.7578,-0.84737 8.7578,-0.84737 2.3621,-2.01036 2.17049,-8.47401 -2.15149,-8.45999 z m -80.411173,0.60924 c -2.944125,0.0845 -4.357491,3.04947 -4.357491,3.04947 -1.373001,2.22969 1.01178,7.35511 5.014101,3.41994 4.002307,-3.93519 3.020026,-5.72406 0.699431,-6.3124 -0.483407,-0.12254 -0.935451,-0.16908 -1.356041,-0.15701 z m 45.85748,21.683 c 0.324811,0.007 0.638455,0.055 0.921977,0.15118 3.34329,1.13488 6.841213,4.0202 10.139149,5.90364 5.313657,3.03457 6.769197,9.22618 7.188307,14.34027 0.73702,8.99266 0.35018,4.70783 0.84801,11.88642 0.10534,1.51955 -2.4465,4.32356 -2.92035,1.07121 -1.225023,-8.40814 -1.217553,-7.5525 -2.487587,-15.0903 -0.942461,-5.59361 -0.153725,-3.98924 -11.482861,-12.1823 0,0 0.457222,0.25929 -4.174523,-2.37145 -3.126561,-1.77585 -0.30579,-3.75692 1.967878,-3.70867 z m 90.783903,1.40989 c -2.05605,0.0509 -3.69634,1.06148 -3.69634,1.06148 -3.32804,1.56166 -4.84214,10.10227 2.78019,8.75715 7.62238,-1.34511 7.98499,-4.46022 5.89196,-7.2694 -1.52602,-2.04814 -3.3767,-2.58887 -4.97581,-2.54923 z m -13.8303,2.23455 c -2.20675,0.0796 -3.95524,1.30738 -3.95524,1.30738 -3.55384,1.90456 -5.07459,12.17182 3.09229,10.48886 8.16684,-1.68301 8.51792,-5.42583 6.23649,-8.77987 -1.66335,-2.44534 -3.6572,-3.07826 -5.37354,-3.01637 z M 147.40384,142.26 c -1.70797,0.0953 -3.06958,0.98881 -3.06958,0.98881 -3.43259,1.66523 -6.01904,12.49706 1.55068,11.55423 7.56971,-0.94289 8.32911,-4.91284 6.66666,-8.74354 -1.38529,-3.19188 -3.43981,-3.89483 -5.14776,-3.7995 z m -12.06681,5.62659 c -1.36592,0.069 -2.46552,0.80455 -2.46552,0.80455 -2.76429,1.36536 -4.97125,10.36717 1.08937,9.62852 6.06057,-0.73872 6.71846,-4.03968 5.43973,-7.23892 -1.06549,-2.66571 -2.69764,-3.26308 -4.06358,-3.19415 z" />
  </g>
</svg>
