<?xml version="1.0" encoding="UTF-8" standalone="no"?>
<!-- Created with Inkscape (http://www.inkscape.org/) -->

<svg
   width="200mm"
   height="200mm"
   viewBox="0 0 200 200"
   version="1.1"
   id="svg238"
   inkscape:version="1.2.1 (9c6d41e410, 2022-07-14)"
   sodipodi:docname="logo.svg"
   xmlns:inkscape="http://www.inkscape.org/namespaces/inkscape"
   xmlns:sodipodi="http://sodipodi.sourceforge.net/DTD/sodipodi-0.dtd"
   xmlns="http://www.w3.org/2000/svg"
   xmlns:svg="http://www.w3.org/2000/svg">
  <sodipodi:namedview
     id="namedview240"
     pagecolor="#ffffff"
     bordercolor="#000000"
     borderopacity="0.25"
     inkscape:showpageshadow="2"
     inkscape:pageopacity="0.0"
     inkscape:pagecheckerboard="0"
     inkscape:deskcolor="#d1d1d1"
     inkscape:document-units="mm"
     showgrid="false"
     inkscape:zoom="0.93303299"
     inkscape:cx="174.16319"
     inkscape:cy="374.04894"
     inkscape:window-width="1920"
     inkscape:window-height="1009"
     inkscape:window-x="-8"
     inkscape:window-y="1072"
     inkscape:window-maximized="1"
     inkscape:current-layer="layer1" />
  <defs
     id="defs235" />
  <g
     inkscape:label="Layer 1"
     inkscape:groupmode="layer"
     id="layer1">
    <path
       id="path520-7"
       style="fill:#000000;stroke-width:0.256897"
       d="m 86.571254,34.307994 c -0.534034,-0.0032 -1.064801,-0.0021 -1.591117,0.0031 -3.82776,0.03815 -7.418422,0.289256 -10.290845,0.617533 -9.191754,1.050488 -26.262222,8.141259 -33.353003,15.494662 -7.090783,7.3534 -10.242356,12.868405 -12.605949,20.747054 -2.363594,7.878643 -0.262457,16.808233 6.040458,23.373765 6.302917,6.565562 11.080461,6.181542 11.080461,6.181542 -8.636138,3.23195 -11.080557,12.20201 -12.131043,15.6161 -1.050485,3.41406 -1.19188,11.5751 6.565491,17.33279 7.283824,5.40621 14.707151,4.76785 19.110978,4.86895 5.82961,0.13382 15.55502,-8.80824 15.81764,-8.80824 h 0.262516 c 19.171371,27.31263 16.181784,25.454 22.848218,30.7268 6.734611,5.32675 9.979861,6.30279 22.585701,4.20181 12.60584,-2.10098 32.51069,-6.46368 37.87727,-9.47435 11.91968,-6.68703 12.28381,-5.75744 11.49594,-10.48464 -0.78787,-4.72717 -1.3045,-8.42229 -4.02042,-9.21235 -2.22215,-0.64642 -10.94947,2.90937 -15.41405,4.22248 -4.46458,1.31311 -18.38355,5.77762 -21.79764,6.56549 -3.41406,0.78786 -7.33636,1.30766 -11.02981,-1.57562 -5.56247,-4.34226 -19.997209,-13.76258 -13.97848,-29.65658 3.19471,-12.38271 45.6382,-7.97108 55.7351,-23.130372 3.30061,-4.955476 3.67688,-9.191855 3.41426,-15.23215 -0.26262,-6.040295 -9.2746,-11.788502 -13.91904,-12.080916 -8.02043,-0.504963 -10.7674,1.575711 -14.44408,2.626196 0,0 -1.51216,-3.3796 -5.37384,-9.191687 -5.91942,-8.90916 -12.74738,-14.444147 -20.88864,-19.433956 -5.24731,-3.216088 -13.985554,-4.249883 -21.996076,-4.297412 z M 59.61476,44.415388 c 1.801756,0.07835 1.31133,2.409915 -3.432349,7.839314 C 39.565987,71.273111 48.234796,72.233995 40.807639,71.420974 31.903533,70.446275 39.227374,60.683128 39.227374,60.683128 45.906274,51.294949 56.402935,44.27571 59.61476,44.415388 Z m 66.15152,22.449792 c 1.17366,-0.12339 3.99398,6.417581 4.32635,9.230961 0.39393,3.334386 3.58496,-3.124293 10.94662,-5.760889 8.75083,-3.134136 12.77361,-0.684454 15.57476,5.037936 2.25847,4.613818 3.02815,9.097417 -0.73123,13.877706 -5.18639,5.540375 -9.85903,8.405385 -13.6834,8.545735 -1.80262,0.10666 -3.47834,0.18779 -5.8384,-1.93064 -2.36005,-2.11841 -4.89121,-4.95897 -6.3593,-8.150402 -1.4681,-3.191433 -2.434,-4.005511 -4.06952,-9.789583 -1.23037,-4.351285 -1.28386,-5.618263 -0.62219,-10.240719 0.0781,-0.545926 0.23896,-0.797255 0.45631,-0.820105 z m 21.44107,4.409033 c -0.0915,3.29e-4 -0.14263,0.0036 -0.14263,0.0036 -2.0115,-0.08007 -4.54648,3.492227 -0.40101,4.704105 4.14542,1.211865 4.97358,-0.136577 4.49275,-1.934249 -0.70114,-2.621293 -3.30831,-2.775776 -3.94911,-2.773474 z M 35.36146,73.832197 c 0.09094,2.19e-4 0.150895,0.04341 0.150895,0.04341 5.23051,0.973623 8.547167,-0.347801 7.708574,3.636987 -1.043681,4.959311 1.202264,4.401802 -4.347022,4.295862 -2.740258,-0.05231 -4.264954,0.512815 -4.37286,-2.401404 -0.186153,-5.027487 0.535643,-5.575638 0.860413,-5.574853 z m 59.779814,6.98562 c 3.756822,-0.08201 7.371936,10.651132 17.316256,15.679142 3.19839,1.61716 6.16419,6.534531 1.23248,5.671491 -4.93169,-0.86305 -7.89049,-4.931391 -9.98647,-1.60248 -2.09597,3.32887 -1.65396,13.00776 -5.54798,9.73997 -1.172437,-0.98389 -1.149801,-4.21783 -1.149801,-4.21783 1.757407,-13.836201 -6.411455,-22.697446 -3.042191,-24.879103 0.398832,-0.25825 0.789068,-0.382706 1.177706,-0.39119 z M 54.179433,96.947579 c 1.662411,-0.0523 3.678313,1.13029 6.427514,2.18333 3.383634,1.296051 6.161298,3.926811 9.042343,6.737581 2.881044,2.81075 4.966512,4.0643 6.747391,8.93692 1.780886,4.8726 2.674363,5.8868 2.005563,9.91515 -0.428756,2.58252 -2.824853,-2.32604 -4.624524,-5.73143 -1.799672,-3.40539 -2.244126,5.14251 -9.236646,10.66395 -3.637272,2.87208 -14.698384,3.34431 -18.625219,1.01441 -5.053899,-2.99861 -6.443078,-5.20835 -5.9924,-12.16153 0.456704,-7.04613 6.623002,-12.62026 17.623731,-15.00271 0,0 0.627306,-1.30586 -4.804875,-2.81378 -3.77646,-1.048311 -2.379168,-2.248911 0.337964,-3.491771 0.350604,-0.16037 0.715524,-0.23805 1.099158,-0.25012 z m 90.832697,5.239481 c -0.25249,0.006 -0.52612,0.0424 -0.82217,0.1111 -4.73683,1.09957 -4.9776,3.76949 -3.69332,6.19445 2.14024,4.04118 5.37332,1.33791 5.37332,1.33791 1.94361,-1.23373 2.92957,-7.74086 -0.85783,-7.64346 z m -9.38702,2.23397 c -0.17278,0.007 -0.35285,0.023 -0.54106,0.0481 -6.02241,0.80195 -6.60072,3.96916 -5.25084,7.00887 2.24958,5.06562 6.56343,2.18333 6.56343,2.18333 2.63751,-1.30725 4.58465,-9.46102 -0.77153,-9.24026 z m 32.32412,0.18913 c -0.25866,0.002 -0.53172,0.0178 -0.81959,0.0486 -3.72665,0.39788 -3.64998,1.19799 -7.43365,5.84099 -2.24337,2.75281 -3.50002,5.12877 -8.49251,6.12727 -4.99246,0.9985 -10.36891,0.23029 -15.09003,0.79892 -3.76808,0.45384 -10.0818,2.27631 -12.64316,3.54707 -3.73541,1.85326 -8.18297,5.65134 -10.02833,7.48171 -3.05853,3.03377 -3.34775,3.74427 -3.34966,3.74758 -0.32906,0.57069 0.85287,1.20067 1.38234,1.25987 1.22079,0.13652 1.95177,-0.026 2.56367,-0.49248 10.01573,-8.91504 10.27309,-6.30173 8.45943,-5.58674 -2.33191,1.4726 -6.47731,5.39638 -7.10344,7.26209 -0.41622,1.2402 0.1728,5.68298 1.2113,4.76147 10.14185,-8.99934 11.93594,-12.96723 20.3233,-13.36663 8.38735,-0.3994 17.66505,1.27483 23.61096,-1.81074 6.06302,-3.14632 11.18284,-9.18582 11.58224,-12.98008 0.37444,-3.55715 -0.29289,-6.66899 -4.17287,-6.63888 z m -43.04492,2.02159 c -0.34793,0.007 -0.72479,0.0474 -1.13274,0.12402 -6.52725,1.22562 -6.8593,4.20151 -5.08962,6.90449 2.94921,4.50443 7.40472,1.49138 7.40472,1.49138 2.67826,-1.37516 4.0366,-8.62846 -1.18236,-8.51989 z m -10.87323,3.13882 c -0.63747,0.002 -1.38772,0.18101 -2.25878,0.59221 -5.57478,2.63171 -5.20014,5.10109 -3.00292,6.82078 3.66166,2.86577 6.97529,-0.6749 6.97529,-0.6749 1.88132,-1.60118 1.72871,-6.74925 -1.71359,-6.73809 z m -64.044673,0.48524 c -2.344892,0.0673 -3.470589,2.4288 -3.470589,2.4288 -1.093546,1.77587 0.805847,5.85809 3.993555,2.72386 3.187697,-3.13424 2.405345,-4.55901 0.557072,-5.0276 -0.385016,-0.0976 -0.745053,-0.13467 -1.080038,-0.12506 z m 36.523869,17.26975 c 0.2587,0.005 0.508507,0.0438 0.734322,0.12041 2.662813,0.90389 5.448786,3.20195 8.075476,4.70204 4.232138,2.41693 5.391426,7.34833 5.725236,11.42152 0.58701,7.16234 0.2789,3.74962 0.67541,9.46712 0.0839,1.21027 -1.948552,3.44356 -2.325959,0.85318 -0.975687,-6.69679 -0.969738,-6.01531 -1.981275,-12.0189 -0.750637,-4.45511 -0.122437,-3.17728 -9.145695,-9.70277 0,0 0.364161,0.20652 -3.324861,-1.88877 -2.490196,-1.41441 -0.243551,-2.99226 1.567346,-2.95383 z m 72.306184,1.12293 c -1.63757,0.0406 -2.94401,0.84543 -2.94401,0.84543 -2.65066,1.24381 -3.85659,8.0461 2.21433,6.97476 6.07095,-1.07133 6.35977,-3.5524 4.69274,-5.78982 -1.21542,-1.63127 -2.68943,-2.06195 -3.96306,-2.03037 z m -11.01535,1.77974 c -1.75759,0.0634 -3.1502,1.04128 -3.1502,1.04128 -2.83051,1.51692 -4.04174,9.69443 2.4629,8.35401 6.5046,-1.34046 6.78422,-4.32149 4.96714,-6.99286 -1.3248,-1.94763 -2.91283,-2.45172 -4.27984,-2.40243 z m -10.74043,2.59829 c -1.36034,0.0759 -2.44481,0.78755 -2.44481,0.78755 -2.73394,1.3263 -4.79395,9.95347 1.23506,9.20254 6.02901,-0.75098 6.63385,-3.9129 5.30976,-6.96392 -1.10333,-2.54223 -2.73968,-3.1021 -4.10001,-3.02617 z m -9.61079,4.48138 c -1.0879,0.0549 -1.9637,0.64079 -1.9637,0.64079 -2.20166,1.08746 -3.95942,8.2571 0.86765,7.66878 4.82703,-0.58836 5.35101,-3.21746 4.33255,-5.76554 -0.84862,-2.12315 -2.14857,-2.59893 -3.2365,-2.54403 z" />
  </g>
</svg>
